# xmcd CD database file
#
# Track frame offsets:
#	150
#	15437
#	31700
#	50485
#	71535
#	85890
#	108969
#	125227
#	141434
#	166478
#	177754
#	199737
#	213720
#	238111
#
# Disc length: 3482 seconds
#
# Revision: 0
# Processed by: cddbd v1.5.1PL2 Copyright (c) Steve Scherf et al.
# Submitted via: CDex 1.51
#
DISCID=c60d980e
DTITLE=Marcel Loeffler - Source Manouche
DYEAR=2005
DGENRE=Jazz
TTITLE0=Swing suspens
TTITLE1=Ma préférence
TTITLE2=FIso Place
TTITLE3=Douce ambiance
TTITLE4=Them there eyes
TTITLE5=All the things you are
TTITLE6=Passion
TTITLE7=Pont de Venise
TTITLE8=Ruby
TTITLE9=Joshua fit the Battle of Jericho
TTITLE10=Double scotch
TTITLE11=H.C.Q. Strut
TTITLE12=Où est mon amour?
TTITLE13=La ballade irlandaise
EXTD=YEAR: 2005
EXTT0=
EXTT1=
EXTT2=
EXTT3=
EXTT4=
EXTT5=
EXTT6=
EXTT7=
EXTT8=
EXTT9=
EXTT10=
EXTT11=
EXTT12=
EXTT13=
PLAYORDER=
